<svg id="Layer_1" data-name="Layer 1" xmlns="http://www.w3.org/2000/svg" viewBox="0 0 500 500"><defs><style>.cls-1{fill:#eee;}.cls-2,.cls-6{fill:#fff;}.cls-3{fill:#2175bb;}.cls-4{fill:#010101;}.cls-5{fill:#2aa7df;}.cls-6{isolation:isolate;font-size:71.06px;font-family:Arial-BoldMT, Arial;font-weight:700;}</style></defs><g id="Layer_3" data-name="Layer 3"><rect class="cls-1" width="500" height="500"/><rect class="cls-2" x="10" y="10" width="480" height="480"/></g><g id="Layer_1-2" data-name="Layer 1"><path class="cls-3" d="M84.73,238q0-19.59-11.73-30-7.16-6.36-20.49-10.09V179.16q15-5.16,21.22-11.33,11-10.71,11-32.75V93.5a57.42,57.42,0,0,1,2.63-16.61Q92,61.83,103.17,53a54.29,54.29,0,0,1,24-10.72q8.36-1.71,24-1.87V65.24Q138.38,68,133.73,72.69q-7.09,7.11-7.09,25V133.6q0,17.35-4.65,27.6-7.9,17.19-31,27.89,20.92,8.53,28.17,19.85t7.53,31.3v39.21q0,17.21,8.32,24.8,4.63,4.5,16.2,7.9V337l-11-.31q-22.13-.63-38.79-13.28T84.77,286.54V238Z"/><path class="cls-4" d="M323.55,121.89q20.68,21.87,20.69,64.24,0,44.69-20.23,68.12t-52.08,23.44q-20.3,0-33.73-10.09-7.33-5.6-14.37-16.3v88.17H180.06V103.74h42.37v25a70.59,70.59,0,0,1,15.31-17.38Q252.58,100,273,100,302.85,100,323.55,121.89ZM289.62,153.7q-9-15.06-29.24-15-24.3,0-33.39,22.81-4.71,12.11-4.7,30.73,0,29.47,15.82,41.43a36.33,36.33,0,0,0,22.27,7q18.67,0,28.46-14.28t9.8-38Q298.61,168.76,289.62,153.7Z"/><path class="cls-5" d="M349,337V312.15c7.76-2.27,13.19-5,16.29-8q7.92-7.74,8.23-24.65V240.24q0-22,8.56-32.63t27.26-18.52q-20.41-9.92-28.12-22.55t-7.7-32.94V97.65q0-17.19-5.51-23.4t-19-9V40.41q15.54.15,24,1.87A56.28,56.28,0,0,1,397.21,53a42,42,0,0,1,14.46,19.86q4.05,11.81,4.06,20.64v41.58q0,22.18,10.09,32.6Q432,173.88,448,179.14v18.77q-13.2,3.72-20,9.62-12.27,10.56-12.26,30.41v48.57q0,23.58-16.34,36.55t-39.34,13.58Z"/></g><g id="Layer_2" data-name="Layer 2"><rect class="cls-3" x="10" y="377.84" width="480" height="112.32"/><text class="cls-6" transform="translate(41.38 454.04)">PIO Express</text></g></svg>