<?xml version="1.0" encoding="UTF-8"?>
<svg xmlns="http://www.w3.org/2000/svg" xmlns:xlink="http://www.w3.org/1999/xlink" width="16pt" height="16pt" viewBox="0 0 16 16" version="1.1">
<g id="surface1">
<path style=" stroke:none;fill-rule:nonzero;fill:rgb(12.941176%,45.882353%,73.333333%);fill-opacity:1;" d="M 1.96875 9.761719 C 1.96875 9.28125 1.824219 8.929688 1.535156 8.671875 C 1.359375 8.511719 1.121094 8.398438 0.785156 8.304688 L 0.785156 7.617188 C 1.167969 7.488281 1.425781 7.359375 1.566406 7.199219 C 1.839844 6.945312 1.96875 6.542969 1.96875 6 L 1.96875 4.480469 C 1.96875 4.289062 2 4.078125 2.0625 3.871094 C 2.175781 3.503906 2.367188 3.214844 2.640625 3.007812 C 2.878906 2.816406 3.183594 2.6875 3.519531 2.625 C 3.726562 2.574219 4.015625 2.558594 4.398438 2.558594 L 4.398438 3.457031 C 4.097656 3.519531 3.871094 3.617188 3.761719 3.726562 C 3.585938 3.902344 3.503906 4.207031 3.503906 4.640625 L 3.503906 5.953125 C 3.503906 6.367188 3.441406 6.703125 3.328125 6.960938 C 3.136719 7.375 2.753906 7.710938 2.191406 7.96875 C 2.703125 8.175781 3.039062 8.414062 3.214844 8.6875 C 3.390625 8.960938 3.488281 9.34375 3.488281 9.824219 L 3.488281 11.246094 C 3.488281 11.664062 3.585938 11.96875 3.792969 12.144531 C 3.902344 12.257812 4.097656 12.351562 4.382812 12.433594 L 4.382812 13.328125 L 4 13.359375 C 3.457031 13.34375 2.992188 13.183594 2.59375 12.878906 C 2.191406 12.574219 1.984375 12.128906 1.984375 11.535156 Z M 1.96875 9.761719 "/>
<path style=" stroke:none;fill-rule:nonzero;fill:rgb(100%,100%,100%);fill-opacity:1;" d="M 10.671875 5.535156 C 11.167969 6.0625 11.425781 6.847656 11.425781 7.871094 C 11.425781 8.960938 11.183594 9.777344 10.6875 10.351562 C 10.191406 10.929688 9.566406 11.199219 8.785156 11.199219 C 8.289062 11.199219 7.886719 11.070312 7.550781 10.832031 C 7.375 10.703125 7.199219 10.496094 7.023438 10.238281 L 7.023438 13.457031 L 5.441406 13.457031 L 5.441406 4.878906 L 6.976562 4.878906 L 6.976562 5.792969 C 7.152344 5.519531 7.328125 5.3125 7.535156 5.152344 C 7.886719 4.878906 8.320312 4.734375 8.816406 4.734375 C 9.550781 4.734375 10.160156 5.007812 10.671875 5.535156 Z M 9.441406 6.6875 C 9.214844 6.320312 8.863281 6.144531 8.367188 6.144531 C 7.777344 6.144531 7.375 6.414062 7.152344 6.976562 C 7.039062 7.265625 6.976562 7.648438 6.976562 8.097656 C 6.976562 8.816406 7.167969 9.3125 7.550781 9.601562 C 7.777344 9.777344 8.046875 9.855469 8.367188 9.855469 C 8.816406 9.855469 9.167969 9.679688 9.40625 9.34375 C 9.648438 9.007812 9.761719 8.527344 9.761719 7.953125 C 9.761719 7.472656 9.648438 7.054688 9.441406 6.6875 Z M 9.441406 6.6875 "/>
<path style=" stroke:none;fill-rule:nonzero;fill:rgb(16.470588%,65.490196%,87.45098%);fill-opacity:1;" d="M 11.601562 13.359375 L 11.601562 12.464844 C 11.886719 12.382812 12.078125 12.289062 12.191406 12.175781 C 12.382812 11.984375 12.480469 11.695312 12.496094 11.28125 L 12.496094 9.855469 C 12.496094 9.328125 12.59375 8.929688 12.800781 8.671875 C 13.007812 8.414062 13.34375 8.191406 13.792969 8 C 13.296875 7.761719 12.960938 7.488281 12.769531 7.183594 C 12.574219 6.878906 12.480469 6.480469 12.480469 5.984375 L 12.480469 4.671875 C 12.480469 4.257812 12.414062 3.96875 12.273438 3.824219 C 12.144531 3.679688 11.902344 3.566406 11.585938 3.503906 L 11.585938 2.558594 C 11.96875 2.558594 12.257812 2.59375 12.464844 2.625 C 12.800781 2.6875 13.089844 2.816406 13.34375 3.007812 C 13.601562 3.199219 13.777344 3.441406 13.871094 3.726562 C 13.96875 4.015625 14.015625 4.273438 14.015625 4.480469 L 14.015625 6 C 14.015625 6.542969 14.144531 6.929688 14.382812 7.183594 C 14.527344 7.328125 14.800781 7.472656 15.183594 7.601562 L 15.183594 8.289062 C 14.863281 8.382812 14.625 8.496094 14.449219 8.640625 C 14.144531 8.894531 14 9.265625 14 9.742188 L 14 11.519531 C 14 12.097656 13.808594 12.542969 13.40625 12.847656 C 13.007812 13.167969 12.527344 13.328125 11.96875 13.34375 Z M 11.601562 13.359375 "/>
</g>
</svg>
